<svg width="32" height="32" viewBox="0 0 32 32" fill="none" xmlns="http://www.w3.org/2000/svg">
  <!-- Background circle with gradient -->
  <circle cx="16" cy="16" r="16" fill="url(#gradient)"/>
  
  <!-- Letter "B" for Benjamin -->
  <path d="M9 8v16h6.5c1.4 0 2.6-.5 3.5-1.4.9-.9 1.4-2.1 1.4-3.5 0-1-.3-1.9-.8-2.6.5-.7.8-1.6.8-2.5 0-1.4-.5-2.6-1.4-3.5C17.1 8.5 15.9 8 14.5 8H9zm3 3h2.5c.4 0 .8.2 1.1.5.3.3.5.7.5 1.1s-.2.8-.5 1.1c-.3.3-.7.5-1.1.5H12v-3.2zm0 6.2h3c.4 0 .8.2 1.1.5.3.3.5.7.5 1.1s-.2.8-.5 1.1c-.3.3-.7.5-1.1.5H12v-3.2z" fill="white"/>
  
  <!-- Small leaf accent -->
  <path d="M22 10c0-1 .5-2 1.5-2.5.5-.3 1-.3 1.5 0 .5.3 1 1.5 1 2.5 0 .8-.3 1.5-.8 2-.5-.5-.8-1.2-.8-2z" fill="#4ade80" opacity="0.8"/>
  
  <defs>
    <linearGradient id="gradient" x1="0" y1="0" x2="1" y2="1">
      <stop offset="0%" stop-color="#059669"/>
      <stop offset="100%" stop-color="#10b981"/>
    </linearGradient>
  </defs>
</svg>